<svg width="127" height="128" viewBox="0 0 127 128" fill="none" xmlns="http://www.w3.org/2000/svg">
<path d="M61.3172 17.11C52.1791 17.49 43.051 20.79 35.6791 26.37C32.1469 29.04 28.7238 32.51 26.1441 36C17.145 48.22 14.5851 64.01 19.2584 78.5C20.5184 82.39 22.5226 86.54 24.8245 89.99C34.6174 104.72 51.8319 112.68 69.1555 110.49C78.74 109.28 87.3224 105.34 94.5455 98.84C110.133 84.81 114.489 61.94 105.162 43.1C101.015 34.74 94.6845 27.95 86.618 23.25C80.5855 19.73 72.9555 17.43 66.3773 17.15C63.5694 17.03 63.1031 17.03 61.3172 17.11ZM66.8238 24.3C79.9902 25.44 91.5987 33.01 98.038 44.65C102.84 53.35 104.209 63.85 101.789 73.6C100.052 80.62 96.5299 86.9 91.4797 92C88.2154 95.3 84.6634 97.85 80.6152 99.81C75.2078 102.42 69.5623 103.7 63.5 103.7C57.1401 103.7 51.3259 102.31 45.6902 99.45C38.1496 95.62 32.0278 89.44 28.2277 81.82C22.3937 70.11 22.6715 56 28.9619 44.65C35.3913 33.05 46.9702 25.47 60.0273 24.31C61.4065 24.19 65.4447 24.19 66.8238 24.3Z" fill="black"/>
<path d="M45.7299 40.81C45.4719 40.85 45.1644 40.94 45.0354 41C44.6385 41.21 40.9773 44.92 40.7491 45.35C40.4614 45.88 40.4515 47.08 40.7194 47.6C40.8186 47.79 44.4698 51.55 48.8255 55.95L56.7531 63.95L48.8553 71.9C44.2714 76.52 40.8781 80.02 40.7491 80.25C40.4217 80.87 40.4415 82 40.7987 82.6C41.1857 83.26 44.708 86.74 45.1842 86.94C45.6704 87.14 46.6923 87.15 47.1884 86.94C47.4762 86.83 49.7185 84.63 55.5426 78.77L63.5 70.75L71.4673 78.77C77.2815 84.63 79.5238 86.83 79.8115 86.94C80.3076 87.15 81.3296 87.14 81.8158 86.94C82.292 86.74 85.8143 83.26 86.2012 82.6C86.5584 82 86.5783 80.87 86.2508 80.25C86.1219 80.02 82.7286 76.52 78.1447 71.9L70.2469 63.95L78.1744 55.95C82.5301 51.55 86.1814 47.79 86.2806 47.6C86.5485 47.08 86.5386 45.88 86.2508 45.35C85.9333 44.76 82.292 41.15 81.8058 40.94C81.2998 40.73 80.3374 40.73 79.8215 40.95C79.5238 41.07 77.3509 43.2 71.4673 49.13L63.5 57.15L55.5426 49.13C50.9389 44.49 47.4464 41.06 47.2777 40.99C46.8114 40.8 46.226 40.74 45.7299 40.81Z" fill="black"/>
</svg>
