<svg width="128" height="128" viewBox="0 0 128 128" fill="none" xmlns="http://www.w3.org/2000/svg">
<g clip-path="url(#clip0_7_2)">
<path d="M64 128C99.3462 128 128 99.3462 128 64C128 28.6538 99.3462 0 64 0C28.6538 0 0 28.6538 0 64C0 99.3462 28.6538 128 64 128Z" fill="#3D8130"/>
<path d="M88.375 84.85L88.35 84.825L88.375 84.85Z" fill="#3D8130"/>
<path d="M38.025 50.75L35.15 56.35L32.175 62.225L30.075 67.725L28.675 73.575L27.8 79.975L27.275 85.5L26.675 89.125L27.275 91.95L28.3 94.375L30.2 97.725L34.6 100.475L37.85 101.75C38.65 102 39.5 102.25 40.225 102.475L44.075 103.175L49.575 103.425H54.125C54.65 103.425 59.25 103.175 59.275 103.15L65.125 103.25L70.775 102.55L73.225 101.525L74.9 99.525L74.975 96.875C74.875 96.65 74.55 95.8 74.45 95.475C74.375 95.25 73.25 93.925 72.225 92.775L72.2 92.75C71.75 92.1 71.025 90.975 71.025 90.6C71.025 90.225 71.475 89.125 71.575 88.925L71.625 88.825L73.975 88.15L75.525 89.275L76.925 88.5L78.5 86.925L81.25 84.9L83.75 83.475L85.725 83.1L88.325 84.875L88.15 84.675L89.225 83.725L90.225 82.075V80.35L90.025 79.85L88.75 80.875L86.475 81.525H86.425L82.925 81.45L77.85 81.975L76.25 82.15L75.025 81.975L71.75 81.525L68.05 80.825L62.075 79.85H62.05L56.325 77.475L51.3 74.575L48.225 72.5L47.925 71.025L48.325 69.65L49.55 68.75L52.4 69.4L58.625 71.325C61.675 71.95 66.325 72.875 66.625 72.9C66.775 72.9 67.375 73 68.875 73.25C70.475 73.5 72.675 73.875 73.125 73.875C73.9 73.875 79.875 74.2 80.225 74.225C80.55 74.225 85.4 74.125 85.925 74.125C86.275 74.125 88.15 73.5 89.275 73.1L90.975 71.075L92.6 68.25C92.7 67.425 92.6 66.6 92.3 65.825C91.9 64.775 91.15 63.875 90.2 63.275C89.7 64.225 89.05 64.825 88.3 65.1C88.025 65.2 87.7 65.25 87.4 65.25C86.95 65.25 86.5 65.15 86.125 64.95L86.375 64.5C86.925 64.775 87.55 64.825 88.15 64.625C88.825 64.375 89.4 63.775 89.85 62.85C89.3 63.05 88.7 63.175 88.1 63.175C87.725 63.175 87.35 63.15 86.975 63.05L87.025 62.8L87.075 62.55C87.1 62.55 89.025 63.025 90.475 61.9C91.5 61.125 92.075 59.725 92.175 57.8L90.5 59.775L88.475 60.7C87.575 60.925 84.575 61.675 84.3 61.675C84.2 61.675 83.8 61.625 82.825 61.45C81.6 61.25 79.775 60.975 79.3 60.975C78.45 60.975 77.25 60.05 77.125 59.95L76.975 59.85L77.925 57.075L80.55 54.1L83.325 52.125H86.775L90.025 52.475L91.425 54.075L92.1 55.075V52.375L89.4 51.4C89.1 51.35 86.425 50.975 85.775 50.975C85.15 50.975 82.75 51.35 82.35 51.4L78.875 53.65L78.6 53.225L82.15 50.925H82.2C82.325 50.9 85.025 50.475 85.75 50.475C86.45 50.475 89.35 50.9 89.475 50.925L89.525 50.95L92.45 52.025L92.725 52.175L92.75 51.975L91.375 50.775L88.9 49.575L85.9 49.325L82.45 49.925L81.075 50.525L80.875 50.05L82.325 49.425L85.875 48.8L89.025 49.075L89.15 49.15L88.2 47.675L85.525 45.325L85.55 45.3L75.15 45.6C75.15 45.6 73.8 45.775 72.25 45.975L73.725 48.1L74.475 49.425L74.1 50.75L73.6 50.6L73.925 49.475L73.275 48.35L71.7 46.075L71.8 46C69.85 46.25 67.775 46.5 67.65 46.5C67.425 46.5 59.075 47.125 58.725 47.125C58.025 47.075 57.325 47 56.65 46.85C56.525 46.775 50.95 44.75 50.75 44.625C50.55 44.5 48.6 42.625 48.6 42.625L44.8 41.45L41.475 45.55L38.025 50.75ZM78.6 62.225C79.1 62.45 79.55 62.725 80.025 63L82.875 63.325L84.5 62.975L84.6 63.475L82.9 63.825L80.925 63.6C81.775 64.225 82.55 64.925 83.25 65.725C83.75 66.3 84.2 66.925 84.575 67.575L84.125 67.825C83.675 67.075 83.15 66.35 82.525 65.725C81.7 64.875 80.775 64.1 79.775 63.475L78.325 62.65L78.6 62.225ZM50.025 52.875L52.3 50.7L54.275 49.075L57.1 48.525L60.075 48.425H63.25L65.875 48.525L71.2 48.625L72.875 49.65L74.925 51.525L76.1 52.975L76.65 55.925L76.15 56.025L75.625 53.2L74.55 51.85L72.575 50.05L71.075 49.125L66.9 49.05L68.725 50.05C69.7 50.55 71.375 51.45 71.55 51.825C71.675 52.025 73 53.325 74.225 54.475L74.25 54.5L76.125 56.925L76.4 58.925L75.9 59L75.65 57.15L73.875 54.85C73.25 54.275 71.3 52.425 71.125 52.075C70.975 51.875 69.675 51.125 68.525 50.525L65.85 49.05L63.275 48.975H60.125L57.175 49.05L54.55 49.55L52.675 51.075L50.55 53.125L50.325 54.475L50.775 54.875L51.9 54.275L53.75 51.975L57.1 50.7L61.45 50.25L65.125 50.6L69.9 53.075L71.875 54.25L73.775 56.775L74.65 59.525L75.925 60.35V61.475L74.75 62.55L72.65 63.425L71.75 64.175L70.8 65.725L70.325 66.5L70.275 66.525C69.65 66.85 68.55 67.425 68.25 67.425C68.025 67.475 66.625 68.1 65.375 68.725L65.25 68.75C65.15 68.775 62.95 69.45 62.4 69.55L62.325 69.05C62.8 68.975 64.875 68.35 65.075 68.275C66.325 67.675 67.875 66.95 68.15 66.95C68.75 66.725 69.325 66.45 69.9 66.125L70.125 65.75L71.275 63.875L71.55 63.65C70.75 63.575 69.7 63.45 69.425 63.3C69.3 63.25 68.55 63.15 64.625 63.15C63.65 63.15 61.35 62.625 61.025 62.525C60.775 62.45 58.425 61.75 58.4 61.75L58.35 61.725L58.3 61.675C58.275 61.65 56.1 59.575 54.5 58.65L54.75 58.2C56.3 59.1 58.275 60.95 58.625 61.275C59 61.375 60.95 61.975 61.2 62.05C61.475 62.15 63.725 62.65 64.625 62.65C69.35 62.65 69.55 62.775 69.675 62.875C69.85 62.975 70.975 63.1 71.925 63.175L71.9 63.35L72.275 63.025L74.375 62.15L75.3 61.3V60.675L74.65 60.25L74.675 60.325L72.5 61.125L69.5 61.475C69.35 61.475 68.7 61.5 67.975 61.5C67.125 61.5 66.2 61.475 65.925 61.375C65.525 61.25 63 60.7 61.75 60.425H61.725L61.7 60.4C60.125 59.55 58.175 58.475 58.025 58.2C57.9 58.05 56.925 57.55 56.1 57.15H56.075L53.3 55.525L52.925 55.6L52.875 55.275L52 54.775L50.65 55.5L49.7 54.675L50.025 52.875ZM51.175 64.85L51.3 65.35L49.6 65.75L48.75 65.95L48.7 65.75L48.625 65.45L51.175 64.85ZM52.25 67.225L52.125 67.725C51.55 67.6 50.95 67.625 50.375 67.725C49.425 67.9 48.025 68.45 46.675 70L46.3 69.675C49.075 66.425 52.125 67.175 52.25 67.225Z" fill="#3D8130"/>
<path d="M55.675 54.575C55.825 54.55 59.375 54.125 59.825 54.125C60 54.125 60.5 54.175 61.15 54.225C62.025 54.3 63.5 54.425 63.725 54.4C64.075 54.3 67.575 54 67.975 53.95L70.05 53.8L69.625 53.55L64.95 51.125L61.425 50.775L57.175 51.2L54.025 52.4L52.425 54.4L53.45 55L55.675 54.575Z" fill="#3D8130"/>
<path d="M68 54.475C66.45 54.625 64.075 54.85 63.825 54.9C63.6 54.95 62.8 54.9 61.1 54.75C60.525 54.7 59.975 54.65 59.825 54.65C59.475 54.65 56.775 54.975 55.75 55.075L54.1 55.375L56.35 56.7C57.05 57.025 58.25 57.625 58.45 57.925C58.65 58.125 60.35 59.1 61.925 59.95C62.325 60.025 65.625 60.75 66.125 60.925C66.475 61.05 68.4 61.025 69.525 61L72.475 60.65L74.25 59.975L74.15 59.925L73.25 57.075L71.475 54.7L70.425 54.075L70.45 54.325L68 54.475Z" fill="#3D8130"/>
<path d="M91.1 54.275L89.85 52.875L86.8 52.525H83.55L80.925 54.4L78.425 57.225L77.625 59.55C78.025 59.85 78.825 60.35 79.35 60.35C79.875 60.35 81.575 60.625 82.95 60.85C83.6 60.95 84.25 61.05 84.35 61.05C84.575 61.025 86.925 60.45 88.375 60.1L90.225 59.25L91.7 57.55L91.575 56.75L87.025 54.9L81.2 54.725L81.225 54.225L87.15 54.4L92.05 56.4L92.25 57.675C92.25 57.6 92.25 57.525 92.25 57.45V56.05L91.1 54.275Z" fill="#3D8130"/>
<path d="M85.65 83.6L83.95 83.925L81.55 85.3L78.85 87.3L78.1 88.05L79.8 89.25L79.925 90.2L78.775 91.35L78.425 91L79.4 90.025L79.35 89.55L77.75 88.425L77.275 88.9L76.275 89.45L76 90.8L77.4 92.025L79.425 91.95C79.8 91.675 80.425 91.275 80.725 91.25C81.025 91.075 81.325 90.875 81.6 90.65C82.275 90.125 82.55 89.95 82.75 89.95C83.35 89.65 83.925 89.325 84.475 88.95L84.55 88.9L87 89.175L87.85 90.025L87.675 90.2C87.15 90.775 86.55 91.525 86.525 91.7C86.525 91.825 86.5 91.95 86.45 92.05L87.025 91.725L89.725 89.8L90.025 90.225L87.275 92.175L86 92.875C85.95 92.95 85.9 93.025 85.875 93.05L85.775 92.975L83.825 94.05L82.475 96L82 97.15L82.975 98.525L84.05 99.75L85.325 99.9L86.5 99.65L86.475 99.4L87.775 97.35L90.225 94.975L90.575 95.35L88.15 97.7L86.975 99.525L87.05 100.9L88.3 101.75L89.95 101.925L90.875 101.65L90.7 101.375L90.825 101.225C90.875 101.15 92.225 99.625 92.5 99.375C92.7 99.175 93.85 97.85 94.425 97.2L94.8 97.525C94.725 97.6 93.125 99.475 92.85 99.725C92.65 99.925 91.675 101 91.325 101.4L92.2 102.7H93.675L94.95 102.125L96 100.575L97.4 99.075L97.775 99.425L96.375 100.9L95.3 102.525L93.775 103.2H91.925L91.15 102.05L89.975 102.4L88.1 102.225L86.55 101.15L86.5 100.15L85.325 100.4L83.775 100.2L82.6 98.85L80.85 97.8L79.025 95.775L78.575 92.625L79.075 92.55L79.45 95.25L81.625 93.525L83.975 91.275L85.325 89.425L84.675 89.35C83.95 89.825 83.1 90.35 82.8 90.4C82.5 90.575 82.2 90.775 81.925 91C81.225 91.525 80.95 91.7 80.775 91.7C80.4 91.875 80.025 92.1 79.7 92.35L79.625 92.4L77.25 92.5L75.475 90.925L75.725 89.725L75.55 89.825L73.95 88.675L72.075 89.225C71.875 89.675 71.725 90.125 71.625 90.6C71.65 90.8 72.2 91.725 72.7 92.45C73.375 93.2 74.925 94.975 75.025 95.35C75.1 95.625 75.425 96.425 75.55 96.725L75.575 96.775L75.5 100.175L76.475 101.625C76.975 101.925 80.65 104.075 81.075 104.325C81.375 104.5 84.025 105.25 85.65 105.7L91.125 106.225L95.525 105.625L99.3 103.9L101.35 101.925L100.875 100.175L98.35 95.475L96.525 92.7L93.35 89.25L88.675 86.675L87.975 85.175L85.65 83.6Z" fill="#3D8130"/>
<path d="M89.625 73.475L89.55 73.5C89.05 73.675 86.5 74.575 85.95 74.575C85.425 74.575 80.3 74.65 80.25 74.675C80.175 74.675 73.925 74.325 73.15 74.325C72.65 74.325 70.625 74 68.825 73.7C67.825 73.525 66.8 73.375 66.65 73.375C66.3 73.375 59.825 72.05 58.525 71.8H58.5L52.275 69.875L49.675 69.3L48.775 69.975L48.475 71.05L48.7 72.2L51.6 74.15L56.575 77.025L62.225 79.375L68.15 80.325L71.85 81.025L76.275 81.625L82.925 80.925H82.95L86.425 81L88.525 80.4L90.3 78.975L91.75 76.75L92.075 75.725L91.6 74.575C89.5 76.475 89.275 76.55 89.15 76.575L87 77.1L81.025 77.375H81L74.75 77.025L68.55 75.9L63.55 76H63.525L58.325 74.675L53.725 73.075L51.275 71.575L51.55 71.15L53.975 72.625L58.5 74.2L63.625 75.5L68.625 75.4H68.65L74.85 76.525L81.05 76.875L86.975 76.625L89.05 76.1C89.175 76.05 89.875 75.5 91.35 74.15C91.55 73.975 91.675 73.85 91.725 73.8L93.625 71.2L94.275 69.975C94.175 69.55 94.075 69.15 94.025 68.725C93.775 68.325 93.5 67.975 93.175 67.625C93.175 67.85 93.175 68.075 93.125 68.3V68.35L91.4 71.325L89.625 73.475Z" fill="#983B1F"/>
<path d="M101.275 100L98.725 95.25L96.875 92.425L93.675 88.85L89.05 86.325L88.375 84.875L88.25 84.95C88.25 84.95 88.675 86.5 88.975 86.65C89.275 86.8 93.275 88.85 93.475 88.95C93.675 89.05 97.15 93.2 97.15 93.2L99.95 98.075L101.625 101.825C101.625 101.825 99.475 104.025 99.35 104.05C99.225 104.075 95.075 106.1 94.95 106.1C94.825 106.1 90.8 106.55 90.575 106.5C90.35 106.425 85.4 106 85.025 105.975C84.625 105.95 80.05 104.125 80.05 104.125L76.1 101.75L74.975 100L73.4 101.775C73.4 101.775 71.175 102.9 70.875 102.9C70.575 102.9 65.125 103.625 64.7 103.625H53.725C53.725 103.625 42.875 103.425 42.4 103.2C42.25 103.125 41.375 102.85 40.225 102.475L39.3 102.3L37.85 101.75C36.075 101.2 34.475 100.725 34.475 100.725L30 97.825C30 97.825 28.125 94.575 28.05 94.4C27.975 94.225 26.825 91.5 26.825 91.375C26.825 91.25 26.425 89.075 26.425 89.075L27.225 84.1L27.575 78.875L28.425 73.175C28.425 73.175 29.85 67.45 29.875 67.2C29.9 66.925 32.2 61.275 32.2 61.275L34.625 56.9L37.825 50.3L41.35 45.325L44.775 41.25L45 41.325L44.6 41L41.275 45.125L37.575 50.5L34.675 56.15L31.7 62L29.575 67.55L28.15 73.45L27.275 79.9L26.75 85.425L26.125 89.15L26.75 92.1L27.825 94.6L29.8 98.1L34.325 100.95L39.1 102.825L43.975 103.725L49.55 104H54.1C54.625 104 59 103.75 59.275 103.725L65.15 103.825H65.175L70.9 103.125H70.925L73.55 102.025L74.9 100.4L76.025 102.075L76.075 102.1C76.125 102.125 80.3 104.55 80.725 104.825C81.175 105.1 85 106.15 85.45 106.25L91.05 106.775L95.55 106.15H95.575L99.475 104.375L99.525 104.35L101.85 102.1L101.275 100Z" fill="black"/>
<path d="M41.35 45.325L37.825 50.3L34.625 56.9L32.2 61.275C32.2 61.275 29.9 66.925 29.875 67.2C29.85 67.475 28.425 73.175 28.425 73.175L27.575 78.875L27.225 84.1L26.425 89.075C26.425 89.075 26.825 91.25 26.825 91.375C26.825 91.5 27.975 94.225 28.05 94.4C28.125 94.575 30 97.825 30 97.825L34.475 100.725C34.475 100.725 36.075 101.2 37.85 101.75L34.6 100.475L30.2 97.725L28.3 94.375L27.275 91.95L26.675 89.125L27.275 85.5L27.8 79.975L28.675 73.575L30.075 67.725L32.175 62.225L35.15 56.35L38.025 50.75L41.7 45.425L45.025 41.325L44.8 41.25L41.35 45.325Z" fill="black"/>
<path d="M85.75 83.075L83.775 83.45L81.275 84.875L78.525 86.9L76.95 88.475L75.55 89.25L74 88.125L71.65 88.8L71.6 88.9C71.5 89.125 71.05 90.2 71.05 90.575C71.05 90.95 71.8 92.1 72.225 92.725L72.25 92.75C73.275 93.9 74.4 95.225 74.475 95.45C74.55 95.775 74.9 96.625 75 96.85L74.925 99.5L73.25 101.5L70.8 102.525L65.15 103.225L59.3 103.125C59.25 103.125 54.65 103.4 54.15 103.4H49.6L44.1 103.15L40.25 102.45C41.375 102.8 42.275 103.1 42.425 103.175C42.875 103.4 53.75 103.6 53.75 103.6H64.725C65.15 103.6 70.625 102.875 70.9 102.875C71.2 102.875 73.425 101.75 73.425 101.75L75 99.975L76.125 101.725L80.075 104.1C80.075 104.1 84.65 105.9 85.05 105.95C85.45 105.975 90.375 106.4 90.6 106.475C90.825 106.55 94.85 106.075 94.975 106.075C95.1 106.075 99.25 104.075 99.375 104.025C99.5 104 101.65 101.8 101.65 101.8L99.975 98.05L97.175 93.175C97.175 93.175 93.7 89.025 93.5 88.925C93.3 88.825 89.3 86.775 89 86.625C88.7 86.475 88.275 84.925 88.275 84.925L88.4 84.85V84.825L85.75 83.075ZM88.65 86.675L93.325 89.25L96.45 92.7L98.275 95.475L100.8 100.175L101.275 101.925L99.225 103.9L95.45 105.625L91.05 106.225L85.575 105.7C83.95 105.25 81.3 104.5 81 104.325C80.575 104.075 76.9 101.925 76.4 101.625L75.425 100.175L75.5 96.775V96.75C75.375 96.45 75.05 95.65 74.975 95.375C74.875 95 73.325 93.225 72.65 92.475C72.15 91.725 71.575 90.8 71.575 90.625C71.675 90.15 71.825 89.7 72.025 89.25L73.9 88.7L75.5 89.85L75.675 89.75L75.425 90.95L77.2 92.525L79.575 92.425L79.65 92.375C79.975 92.125 80.35 91.9 80.725 91.725C80.925 91.725 81.175 91.55 81.875 91.025C82.15 90.8 82.45 90.6 82.75 90.425C83.05 90.4 83.925 89.85 84.625 89.375L85.275 89.45L83.925 91.3L81.575 93.55L79.4 95.275L79.025 92.575L78.525 92.65L78.975 95.8L80.8 97.825L82.55 98.875L83.725 100.225L85.275 100.425L86.45 100.175L86.5 101.175L88.05 102.25L89.925 102.425L91.1 102.075L91.875 103.225H93.725L95.25 102.55L96.325 100.925L97.725 99.45L97.35 99.1L95.95 100.6L94.9 102.15L93.625 102.725H92.15L91.275 101.425C91.625 101.025 92.6 99.95 92.8 99.75C93.075 99.475 94.675 97.625 94.75 97.55L94.375 97.225C93.8 97.9 92.65 99.2 92.45 99.4C92.175 99.675 90.825 101.2 90.775 101.25L90.65 101.4L90.825 101.675L89.9 101.95L88.25 101.775L87 100.925L86.925 99.55L88.1 97.725L90.525 95.375L90.175 95L87.725 97.375L86.425 99.425L86.45 99.675L85.275 99.925L84 99.775L82.925 98.55L81.95 97.175L82.425 96.025L83.775 94.075L85.725 93L85.825 93.075C85.85 93.025 85.9 92.975 85.95 92.9L87.225 92.2L89.975 90.25L89.675 89.825L86.975 91.75L86.4 92.075C86.45 91.975 86.475 91.85 86.475 91.725C86.5 91.525 87.1 90.8 87.625 90.225L87.8 90.05L86.95 89.2L84.5 88.925L84.425 88.975C83.875 89.35 83.3 89.7 82.7 89.975C82.5 89.975 82.225 90.175 81.55 90.675C81.275 90.9 80.975 91.1 80.675 91.275C80.375 91.3 79.775 91.7 79.375 91.975L77.35 92.05L75.95 90.825L76.225 89.475L77.225 88.925L77.7 88.45L79.3 89.575L79.35 90.05L78.375 91.025L78.725 91.375L79.875 90.225L79.75 89.275L78.05 88.075L78.8 87.325L81.5 85.325L83.9 83.95L85.6 83.625L87.9 85.2L88.65 86.675ZM81.8 97.85L81.125 97.45L79.625 95.8L81.925 94L84.3 91.7L85.85 89.55L86.725 89.65L87.1 90.025C86.625 90.55 85.975 91.325 85.975 91.675C85.9 91.975 85.75 92.25 85.575 92.475L83.4 93.675L81.95 95.75L81.35 97.25L81.8 97.85Z" fill="black"/>
<path d="M87.925 46.9L89.2 48.575C89.2 48.575 89.825 49.55 90.05 49.625C90.275 49.7 92.35 50.9 92.35 50.9L93.2 51.85L93.025 52.4L92.375 52.2L92.475 55.425H92.675V52.525L93.25 52.85L93.4 51.625L91.775 50.2L90.025 49.35L90.1 49.3L88.75 47.175L86.025 44.775L85.725 45.125H86L87.925 46.9Z" fill="black"/>
<path d="M92.175 60.075C92.175 60.075 91.25 61.925 91.15 61.975C91.05 62.05 90.225 62.4 90.225 62.4L90.3 62.85C90.675 63.125 91.05 63.425 91.375 63.75C91.425 63.825 91.975 64.925 92.425 65.75H92.875C92.45 64.5 91.6 63.425 90.475 62.75C90.525 62.65 90.575 62.525 90.625 62.425C90.7 62.375 90.8 62.325 90.875 62.25C92.1 61.325 92.725 59.725 92.8 57.475V55.9L92.5 55.45L92.575 57.875L92.175 60.075Z" fill="black"/>
<path d="M88.375 47.55L89.325 49.025L89.2 48.95L86.05 48.675L82.5 49.3L81.05 49.925L81.25 50.4L82.625 49.8L86.075 49.2L89.075 49.45L91.55 50.65L92.925 51.85L92.9 52.05L92.625 51.9L89.7 50.825L89.65 50.8C89.525 50.775 86.65 50.35 85.925 50.35C85.2 50.35 82.5 50.775 82.375 50.8H82.325L78.775 53.1L79.05 53.525L82.525 51.275C82.925 51.225 85.325 50.85 85.95 50.85C86.6 50.85 89.275 51.25 89.575 51.275L92.275 52.25V55L91.6 54L90.2 52.4L86.95 52.05H83.5L80.725 54.025L78.1 57L77.15 59.775L77.3 59.875C77.425 59.975 78.625 60.9 79.475 60.9C79.95 60.9 81.8 61.2 83 61.375C83.975 61.525 84.375 61.6 84.475 61.6C84.75 61.6 87.75 60.85 88.65 60.625L90.675 59.7L92.35 57.725C92.25 59.65 91.675 61.05 90.65 61.825C89.175 62.95 87.25 62.475 87.25 62.475L87.2 62.725L87.15 62.975C87.525 63.05 87.9 63.1 88.275 63.1C88.875 63.1 89.475 63 90.025 62.775C89.575 63.7 89 64.3 88.325 64.55C87.75 64.75 87.1 64.7 86.55 64.425L86.3 64.875C86.7 65.075 87.15 65.175 87.575 65.175C87.875 65.175 88.175 65.125 88.475 65.025C89.225 64.75 89.85 64.15 90.375 63.2C91.325 63.8 92.075 64.7 92.475 65.75H92.55C92.125 64.925 91.55 63.825 91.5 63.75C91.15 63.425 90.8 63.125 90.425 62.85L90.35 62.4C90.35 62.4 91.175 62.05 91.275 61.975C91.375 61.9 92.3 60.075 92.3 60.075L92.7 57.9L92.625 55.475L92.525 52.25L93.175 52.45L93.35 51.9L92.5 50.95C92.5 50.95 90.425 49.725 90.2 49.675C89.975 49.6 89.35 48.625 89.35 48.625L88.075 46.95L86.125 45.2H85.85L85.825 45.225L88.375 47.55ZM92.275 57.675L92.075 56.4L87.175 54.4L81.25 54.225L81.225 54.725L87.05 54.9L91.6 56.75L91.725 57.55L90.25 59.25L88.4 60.1C86.95 60.45 84.6 61.025 84.375 61.05C84.275 61.05 83.625 60.95 82.975 60.85C81.6 60.625 79.9 60.35 79.375 60.35C78.875 60.35 78.075 59.85 77.65 59.55L78.45 57.225L80.95 54.4L83.575 52.525H86.825L89.875 52.875L91.125 54.275L92.3 56.05V57.45C92.275 57.525 92.275 57.6 92.275 57.675Z" fill="black"/>
<path d="M76.3 82.1L77.9 81.925H75.075L76.3 82.1Z" fill="black"/>
<path d="M90.525 82.025C90.45 82.15 89 84.5 89 84.5L88.35 84.85L88.5 85.025L89.65 84.025L90.75 82.175V81.925H90.525C90.55 81.975 90.55 82 90.525 82.025Z" fill="black"/>
<path d="M90.525 82.025C90.525 82 90.55 81.95 90.55 81.925H90.275V82.025L89.275 83.675L88.2 84.625L88.375 84.825L88.4 84.85L89.05 84.5C89.025 84.5 90.475 82.175 90.525 82.025Z" fill="black"/>
<path d="M92.925 66.7L93.15 67.025C93.1 66.6 93.025 66.175 92.875 65.75H92.425C92.7 66.275 92.925 66.7 92.925 66.7Z" fill="black"/>
<path d="M94.55 69.5C94.525 69.625 94.225 70.625 94.15 70.775C94.075 70.95 91.725 74.175 91.725 74.175L92.275 75.3C92.275 75.3 92.375 76.1 92.3 76.225C92.225 76.35 90.15 79.575 90.15 79.575L90.475 80.475C90.475 80.475 90.55 81.6 90.525 81.95H90.75V80.225L90.475 79.475L90.7 79.3L92.225 76.95L92.625 75.675L92.025 74.2C92.075 74.15 92.1 74.125 92.1 74.125L94.05 71.45L94.825 70.025L94.8 69.925C94.7 69.525 94.6 69.1 94.55 68.675C94.55 68.575 94.55 68.3 93.25 66.925L93.15 67.025L93.925 68.125C93.925 68.125 94.575 69.375 94.55 69.5Z" fill="black"/>
<path d="M92.425 65.75H92.35C92.65 66.525 92.75 67.35 92.65 68.175L91 71L89.3 73.025C88.15 73.425 86.275 74.05 85.95 74.05C85.425 74.05 80.575 74.125 80.25 74.15C79.875 74.125 73.925 73.8 73.15 73.8C72.7 73.8 70.5 73.45 68.9 73.175C67.425 72.925 66.8 72.825 66.65 72.825C66.325 72.8 61.7 71.875 58.65 71.25L52.425 69.325L49.575 68.675L48.35 69.575L47.95 70.95L48.25 72.425L51.325 74.5L56.35 77.4L62.075 79.775H62.1L68.075 80.75L71.775 81.45L75.05 81.9H77.9L82.975 81.375L86.475 81.45H86.525L88.8 80.8L90.075 79.775L90.275 80.275V81.9H90.55C90.575 81.55 90.5 80.425 90.5 80.425L90.175 79.525C90.175 79.525 92.25 76.3 92.325 76.175C92.4 76.05 92.3 75.25 92.3 75.25L91.75 74.125C91.75 74.125 94.125 70.9 94.175 70.725C94.25 70.55 94.525 69.575 94.575 69.45C94.6 69.325 93.95 68.075 93.95 68.075L93.175 66.975L92.95 66.65C92.925 66.7 92.7 66.275 92.425 65.75ZM93.15 68.3C93.175 68.075 93.2 67.85 93.2 67.625C93.525 67.95 93.8 68.325 94.05 68.725C94.1 69.15 94.175 69.575 94.3 69.975L93.65 71.2L91.75 73.8C91.7 73.85 91.55 73.975 91.375 74.15C89.9 75.5 89.225 76.025 89.075 76.1L87 76.625L81.075 76.875L74.875 76.525L68.675 75.4H68.65L63.65 75.5L58.525 74.2L54 72.625L51.575 71.15L51.3 71.575L53.75 73.075L58.35 74.675L63.55 76H63.575L68.575 75.9L74.775 77.025L81.025 77.375H81.05L87.025 77.1L89.175 76.575C89.275 76.55 89.525 76.475 91.625 74.575L92.1 75.725L91.775 76.75L90.325 78.975L88.55 80.4L86.45 81L82.975 80.925H82.95L76.3 81.625L71.875 81.025L68.175 80.325L62.25 79.375L56.6 77.025L51.625 74.15L48.725 72.2L48.5 71.05L48.8 69.975L49.7 69.3L52.3 69.875L58.525 71.8H58.55C59.85 72.075 66.3 73.375 66.675 73.375C66.8 73.375 67.85 73.55 68.85 73.7C70.65 74 72.675 74.325 73.175 74.325C73.95 74.325 80.2 74.675 80.275 74.675C80.325 74.675 85.45 74.575 85.975 74.575C86.525 74.575 89.075 73.675 89.575 73.5L89.65 73.475L91.45 71.325L93.175 68.35L93.15 68.3Z" fill="black"/>
<path d="M50.375 67.725C50.95 67.6 51.55 67.6 52.125 67.725L52.25 67.225C52.125 67.2 49.075 66.425 46.3 69.675L46.675 70C48.025 68.425 49.425 67.9 50.375 67.725Z" fill="black"/>
<path d="M49.575 65.75L51.275 65.35L51.175 64.85L48.625 65.45L48.7 65.75H49.575Z" fill="black"/>
<path d="M48.75 65.95L49.575 65.75H48.7L48.75 65.95Z" fill="black"/>
<path d="M79.825 63.5C80.825 64.15 81.75 64.9 82.575 65.75H83.275C82.575 64.95 81.8 64.25 80.95 63.625L82.925 63.85L84.625 63.5L84.525 63L82.9 63.35L80.05 63.025C79.6 62.725 79.125 62.475 78.625 62.25L78.4 62.7L79.825 63.5Z" fill="black"/>
<path d="M84.15 67.85L84.6 67.6C84.225 66.95 83.775 66.325 83.275 65.75H82.575C83.175 66.4 83.7 67.1 84.15 67.85Z" fill="black"/>
<path d="M52 54.775L52.875 55.275L52.925 55.6L53.3 55.525L56.075 57.15H56.1C56.925 57.55 57.9 58.05 58.025 58.2C58.2 58.45 60.125 59.525 61.7 60.4L61.725 60.425H61.75C63.025 60.7 65.525 61.25 65.925 61.375C66.225 61.475 67.15 61.5 67.975 61.5C68.7 61.5 69.375 61.475 69.5 61.475L72.5 61.125L74.675 60.325L74.65 60.25L75.3 60.675V61.3L74.375 62.15L72.275 63.025L71.9 63.35L71.925 63.175C70.975 63.1 69.85 62.95 69.675 62.875C69.55 62.8 69.35 62.65 64.625 62.65C63.725 62.65 61.475 62.15 61.2 62.05C60.95 61.975 59 61.375 58.625 61.275C58.3 60.95 56.325 59.125 54.75 58.2L54.5 58.65C56.125 59.6 58.3 61.65 58.3 61.675L58.35 61.725L58.4 61.75C58.425 61.75 60.775 62.45 61.025 62.525C61.325 62.625 63.625 63.15 64.625 63.15C68.55 63.15 69.275 63.25 69.425 63.3C69.7 63.45 70.75 63.575 71.55 63.65L71.275 63.875L70.125 65.75H70.725L71.675 64.2L72.575 63.45L74.675 62.575L75.85 61.5V60.375L74.575 59.55L73.7 56.8L71.8 54.275L69.825 53.1L65.05 50.625L61.375 50.275L57.025 50.725L53.675 52L51.825 54.3L50.7 54.9L50.25 54.5L50.475 53.15L52.6 51.1L54.475 49.575L57.1 49.075L60.05 49H63.2L65.775 49.075L68.45 50.55C69.6 51.15 70.925 51.9 71.05 52.1C71.225 52.45 73.175 54.3 73.8 54.875L75.575 57.175L75.825 59.025L76.325 58.95L76.05 56.95L74.175 54.525L74.15 54.5C72.925 53.375 71.6 52.075 71.475 51.85C71.3 51.475 69.625 50.575 68.65 50.075L66.825 49.075L71 49.15L72.5 50.075L74.475 51.875L75.55 53.225L76.075 56.05L76.575 55.95L76.025 53L74.85 51.55L72.8 49.675L71.125 48.65L65.8 48.55L63.175 48.45H60L57.025 48.55L54.2 49.1L52.225 50.725L49.95 52.9L49.65 54.7L50.6 55.525L52 54.775ZM71.5 54.675L73.275 57.05L74.175 59.9L74.275 59.95L72.5 60.625L69.55 60.975C68.425 61 66.5 61.025 66.15 60.9C65.65 60.725 62.35 60.025 61.95 59.925C60.375 59.075 58.65 58.1 58.475 57.9C58.275 57.625 57.075 57.025 56.375 56.675L54.125 55.35L55.775 55.05C56.8 54.925 59.5 54.625 59.85 54.625C60 54.625 60.55 54.675 61.125 54.725C62.825 54.875 63.625 54.925 63.85 54.875C64.1 54.825 66.475 54.575 68.025 54.45L70.475 54.275L70.45 54.025L71.5 54.675ZM54 52.425L57.15 51.225L61.4 50.8L64.925 51.15L69.6 53.575L70.025 53.825L67.95 53.975C67.55 54 64.05 54.325 63.7 54.425C63.475 54.475 62.025 54.325 61.125 54.25C60.475 54.2 59.975 54.15 59.8 54.15C59.35 54.15 55.8 54.575 55.65 54.6L53.4 55.025L52.375 54.425L54 52.425Z" fill="black"/>
<path d="M69.9 66.125C69.325 66.45 68.75 66.7 68.15 66.95C67.875 66.95 66.325 67.675 65.075 68.275C64.85 68.35 62.8 68.975 62.325 69.05L62.4 69.55C62.925 69.45 65.15 68.775 65.25 68.75L65.275 68.725C66.525 68.125 67.95 67.475 68.15 67.425C68.45 67.4 69.55 66.85 70.175 66.525L70.225 66.5L70.7 65.725H70.1L69.9 66.125Z" fill="black"/>
<path d="M72.3 45.65L71.975 45.875C72.125 45.85 72.275 45.85 72.425 45.825L72.3 45.65Z" fill="black"/>
<path d="M73.475 48.225L74.125 49.35L73.8 50.475L74.3 50.625L74.675 49.3L73.925 47.975L72.45 45.85C72.3 45.875 72.15 45.875 72 45.9L71.9 45.975L73.475 48.225Z" fill="black"/>
<path d="M88.775 47.625L91 47.4C91 47.4 96.55 49.05 96.775 49.275C97 49.5 99.8 50.725 99.8 50.725L101.45 50.875L101.675 49.375L100.45 47.625L96.925 45.025L92.9 43.075L90.375 42.2L89.475 29.45L87.35 26.275L84.175 23.675L80.075 21.65L75.825 21.575L67.825 22.575L60.475 24.025L60.05 22.775C59.475 22.625 58.9 22.525 58.325 22.45C57.9 22.45 54 23.65 54 23.65L51.625 24.9L51.125 26.35L47.725 28.225L44.975 31.675L43.4 35C43.4 35 42.6 38.325 42.6 38.525C42.6 38.725 43.025 40.55 43.325 40.675C43.625 40.8 45.85 41.4 45.85 41.4L48.775 42.85L53 45.3L58.25 47.025C58.25 47.025 63.225 46.675 63.725 46.675C64.225 46.675 71.725 45.875 72.15 45.875C72.575 45.875 80.8 45.225 81.025 45.225C81.25 45.225 86.15 45.15 86.15 45.15L88.1 46.875L88.775 47.625Z" fill="#C82727"/>
<path d="M86.825 54.7L87.475 56.075L87.875 57.65L87.675 58.65L86.825 60.825L84.125 61.275L79.775 60.5L79.25 58.975L79.45 57.6L79.9 55.425L81.025 54.175L81.75 54.575L86.55 54.7" fill="black"/>
<path d="M67.025 54.5L67.825 56.025L67.9 57.875L67.5 59.525L66.65 60.85L65.275 60.925L60 59.35L57.9 57.5L58.175 56.325L58.9 55.2L59.875 54.425L63.575 54.525C63.525 54.5 66.875 54.775 67.025 54.5Z" fill="black"/>
<path d="M101 47.825L98.95 46.025L96 44.05L91.15 42.275L90.475 42L90.275 37.825C90.025 35.775 89.675 32.675 89.675 32.425C89.675 32.075 89.5 29.525 89.5 29.425V29.375L88.05 26.75L85.625 24.25L81.9 22.125L78.8 21.25H74.55L70.375 21.775C68.7 22.05 66.075 22.475 65.775 22.475C65.325 22.475 61.825 23.275 61.425 23.35L60.2 23.675L60.4 23.575L60 22.775L58.7 22.275L56.8 22.45L53.75 23.2L51.45 24.675L50.975 25.9L51.3 26.025L50.025 26.35H49.975L47.275 28.05L45.4 30.175L43.7 33.025L42.35 37.675V39.35L43.225 40.9L48.7 42.85L50.525 44.5L54.6 46.35L58.2 47.25L64.925 46.8L74.65 45.75L81.575 45.225L87.325 45.3L93.4 46.175L98.2 48.45L98.425 48L93.575 45.7L87.4 44.825L81.575 44.725L74.625 45.25L64.9 46.3L58.275 46.725L54.825 45.875L50.85 44.05L49 42.375L43.6 40.45L42.9 39.2V37.725L44.2 33.225L45.85 30.475L47.65 28.425L50.225 26.8L61.575 23.825C63.05 23.5 65.525 22.95 65.825 22.95C66.275 22.95 70.075 22.325 70.5 22.25L74.6 21.725H78.75L81.675 22.575L85.3 24.65L87.625 27.05L88.975 29.525C89.025 30.45 89.15 32.175 89.15 32.425C89.15 32.775 89.7 37.375 89.775 37.875L89.975 41.8L87.025 40.675L81.2 40.05L76.8 39.6L72.475 39.95L67.475 40.475L61.65 41.8L57.275 42.85L54.35 43.025L50.6 42.275L52.5 43.65L54.05 44.55L57.6 45.425L61.075 45.525H61.1L64.2 45.175L68.575 44.475L72.85 43.775L77.65 43.425L80.975 43.25L84.975 43.5L90.4 44.2L97.4 45.525L98.625 46.325L100.575 48.025L101.125 49.3L101 50.25L99.95 50.325L97.9 49.375L94.125 47.875L91.15 46.975L88.55 47.25L88.6 47.75L91.1 47.5L93.925 48.35L97.675 49.825L99.85 50.825L101.425 50.725L101.65 49.225L101 47.825ZM51.5 25.95L51.875 25L53.95 23.675L56.875 22.975L58.65 22.8L59.65 23.175L59.925 23.725L51.5 25.95ZM90.475 43.8L85 43.1L80.95 42.825L77.6 43L72.775 43.35L68.45 44.05L64.075 44.75L61.025 45.1L57.65 45.025L54.2 44.175L52.75 43.325H52.725L54.25 43.625L57.275 43.45L61.7 42.4L67.475 41.1L72.45 40.575L76.725 40.225L81.075 40.65L86.825 41.25L90.925 42.825L95.725 44.575L96.275 44.95L90.475 43.8Z" fill="black"/>
<path d="M65.3773 58.6442C66.2111 58.3962 66.7178 57.6265 66.5092 56.9251C66.3006 56.2237 65.4556 55.8562 64.6218 56.1042C63.7881 56.3522 63.2813 57.1218 63.4899 57.8232C63.6986 58.5246 64.5436 58.8922 65.3773 58.6442Z" fill="white"/>
<path d="M61.3 58.5C61.659 58.5 61.95 58.209 61.95 57.85C61.95 57.491 61.659 57.2 61.3 57.2C60.941 57.2 60.65 57.491 60.65 57.85C60.65 58.209 60.941 58.5 61.3 58.5Z" fill="white"/>
<path d="M60.9 56.475C61.259 56.475 61.55 56.184 61.55 55.825C61.55 55.466 61.259 55.175 60.9 55.175C60.541 55.175 60.25 55.466 60.25 55.825C60.25 56.184 60.541 56.475 60.9 56.475Z" fill="white"/>
<path d="M82.075 59.325C82.4063 59.325 82.675 59.0564 82.675 58.725C82.675 58.3936 82.4063 58.125 82.075 58.125C81.7436 58.125 81.475 58.3936 81.475 58.725C81.475 59.0564 81.7436 59.325 82.075 59.325Z" fill="white"/>
<path d="M82 57.05C82.359 57.05 82.65 56.759 82.65 56.4C82.65 56.041 82.359 55.75 82 55.75C81.641 55.75 81.35 56.041 81.35 56.4C81.35 56.759 81.641 57.05 82 57.05Z" fill="white"/>
<path d="M85.575 58.9C86.224 58.9 86.75 58.3739 86.75 57.725C86.75 57.0761 86.224 56.55 85.575 56.55C84.9261 56.55 84.4 57.0761 84.4 57.725C84.4 58.3739 84.9261 58.9 85.575 58.9Z" fill="white"/>
</g>
<defs>
<clipPath id="clip0_7_2">
<rect width="128" height="128" fill="white"/>
</clipPath>
</defs>
</svg>
