<svg width="128" height="128" viewBox="0 0 128 128" fill="none" xmlns="http://www.w3.org/2000/svg">
<g clip-path="url(#clip0_8_2)">
<path fill-rule="evenodd" clip-rule="evenodd" d="M23.4369 0.628463L0.0980571 56.9837C0.00924593 57.1933 -0.0188978 57.4301 0.0177418 57.6594C0.0543813 57.8887 0.153882 58.0985 0.301693 58.2582L63.3344 127.692C63.5135 127.889 63.7519 128 64 128C64.2481 128 64.4866 127.889 64.6656 127.692L127.698 58.2625C127.846 58.1028 127.946 57.893 127.982 57.6637C128.019 57.4344 127.991 57.1976 127.902 56.988L104.563 0.632798C104.488 0.443533 104.367 0.283202 104.214 0.170966C104.062 0.0587303 103.884 -0.000662639 103.703 -0.000114471H24.3043C24.1224 -0.00271618 23.9437 0.0552461 23.7898 0.16678C23.6359 0.278315 23.5133 0.438656 23.4369 0.628463Z" fill="#50AF95"/>
<path fill-rule="evenodd" clip-rule="evenodd" d="M72.0983 62.771C71.6458 62.81 69.3077 62.9704 64.0924 62.9704C59.9443 62.9704 56.9991 62.8274 55.9658 62.771C39.9352 61.9604 27.9697 58.7525 27.9697 54.9116C27.9697 51.0708 39.9352 47.8672 55.9658 47.0436V59.5761C57.0142 59.6628 60.0159 59.8666 64.164 59.8666C69.1418 59.8666 71.6344 59.6281 72.0832 59.5805V47.0523C88.0799 47.8716 100.019 51.0795 100.019 54.9116C100.019 58.7438 88.0837 61.9517 72.0832 62.7667L72.0983 62.771ZM72.0983 45.7561V34.5414H94.4228V17.4398H33.6413V34.5414H55.962V45.7518C37.8196 46.7098 24.1761 50.8411 24.1761 55.7917C24.1761 60.7422 37.8196 64.8692 55.962 65.8316V101.769H72.0945V65.8185C90.1954 64.8605 103.816 60.7336 103.816 55.7873C103.816 50.8411 90.2068 46.7141 72.0945 45.7518L72.0983 45.7561Z" fill="white"/>
</g>
<defs>
<clipPath id="clip0_8_2">
<rect width="128" height="128" fill="white"/>
</clipPath>
</defs>
</svg>
